<svg width="24" height="24" viewBox="0 0 24 24" fill="none" xmlns="http://www.w3.org/2000/svg">
<path d="M10.875 9.9675V16.5C10.875 16.7984 10.9935 17.0845 11.2045 17.2955C11.4155 17.5065 11.7016 17.625 12 17.625C12.2984 17.625 12.5845 17.5065 12.7955 17.2955C13.0065 17.0845 13.125 16.7984 13.125 16.5V9.9675C14.0829 9.69596 14.9103 9.08713 15.4544 8.25335C15.9986 7.41957 16.2228 6.41712 16.0857 5.43096C15.9486 4.44481 15.4595 3.54151 14.7086 2.88774C13.9577 2.23398 12.9956 1.87387 12 1.87387C11.0044 1.87387 10.0423 2.23398 9.2914 2.88774C8.54048 3.54151 8.05135 4.44481 7.91428 5.43096C7.77721 6.41712 8.00144 7.41957 8.54559 8.25335C9.08975 9.08713 9.91711 9.69596 10.875 9.9675ZM12 4.125C12.3708 4.125 12.7334 4.23496 13.0417 4.44099C13.35 4.64702 13.5904 4.93985 13.7323 5.28247C13.8742 5.62508 13.9113 6.00208 13.839 6.36579C13.7666 6.72951 13.588 7.0636 13.3258 7.32582C13.0636 7.58805 12.7295 7.76662 12.3658 7.83897C12.0021 7.91132 11.6251 7.87419 11.2825 7.73227C10.9399 7.59036 10.647 7.35003 10.441 7.04169C10.235 6.73335 10.125 6.37084 10.125 6C10.125 5.50272 10.3225 5.0258 10.6742 4.67417C11.0258 4.32254 11.5027 4.125 12 4.125ZM22.875 16.5C22.875 18.5241 20.6344 19.6875 19.2984 20.2012C17.3306 20.9587 14.7394 21.375 12 21.375C6.59625 21.375 1.125 19.7006 1.125 16.5C1.125 14.4159 3.57375 12.7312 7.67625 11.9944C7.8226 11.9659 7.97315 11.9669 8.11914 11.9971C8.26513 12.0274 8.40365 12.0863 8.52665 12.1706C8.64965 12.2549 8.75467 12.3627 8.83562 12.4879C8.91656 12.6132 8.97181 12.7532 8.99815 12.8999C9.02449 13.0467 9.0214 13.1972 8.98906 13.3428C8.95672 13.4883 8.89577 13.626 8.80976 13.7477C8.72375 13.8695 8.61439 13.973 8.48803 14.0521C8.36168 14.1313 8.22086 14.1845 8.07375 14.2087C4.86844 14.7853 3.375 15.9169 3.375 16.5C3.375 16.875 4.0425 17.5378 5.50969 18.1012C7.22531 18.7575 9.53062 19.125 12 19.125C14.4694 19.125 16.7747 18.7612 18.4903 18.1012C19.9566 17.5378 20.625 16.875 20.625 16.5C20.625 15.9169 19.1316 14.7853 15.9263 14.2087C15.7791 14.1845 15.6383 14.1313 15.512 14.0521C15.3856 13.973 15.2763 13.8695 15.1902 13.7477C15.1042 13.626 15.0433 13.4883 15.0109 13.3428C14.9786 13.1972 14.9755 13.0467 15.0018 12.8999C15.0282 12.7532 15.0834 12.6132 15.1644 12.4879C15.2453 12.3627 15.3504 12.2549 15.4733 12.1706C15.5963 12.0863 15.7349 12.0274 15.8809 11.9971C16.0268 11.9669 16.1774 11.9659 16.3237 11.9944C20.4262 12.7312 22.875 14.4159 22.875 16.5Z" fill="#FEE289"/>
</svg>
